# xmcd
#
# Track frame offsets:
#	150
#	11684
#	25305
#	36694
#	49232
#	61638
#	76715
#	89462
#	105228
#	119072
#	136788
#	149992
#	164173
#	180650
#	195971
#
# Disc length: 2812 seconds
#
# Revision: 1
# Processed by: cddbd v1.4PL0 Copyright (c) Steve Scherf et al.
# Submitted via: dBpowerAMP V4.0
#
DISCID=d00afa0f
DTITLE=Kandis - 8
DYEAR=2000
DGENRE=Pop
TTITLE0=Hvor ka' vi mødes
TTITLE1=Ma ma Marie
TTITLE2=Rosalita
TTITLE3=Tre røde roser
TTITLE4=Evelina
TTITLE5=Natten for længe, længe siden
TTITLE6=Polterabend
TTITLE7=Pizziricco
TTITLE8=Kærligheden rammer altid plet
TTITLE9=Til min kære
TTITLE10=Vi fester hele natten
TTITLE11=Let us have a party
TTITLE12=Den allerstørste kærlighed
TTITLE13=Så længe vi har hinanden
TTITLE14=Hold Me (Radiomix)
EXTD=
EXTT0=
EXTT1=
EXTT2=
EXTT3=
EXTT4=
EXTT5=
EXTT6=
EXTT7=
EXTT8=
EXTT9=
EXTT10=
EXTT11=
EXTT12=
EXTT13=
EXTT14=
PLAYORDER=
